<?xml version="1.0" encoding="UTF-8" standalone="no"?>
<!--Generator: Xara Xtreme (www.xara.com), SVG filter version: 1.0.0.13-->

<svg
   xmlns:dc="http://purl.org/dc/elements/1.1/"
   xmlns:cc="http://creativecommons.org/ns#"
   xmlns:rdf="http://www.w3.org/1999/02/22-rdf-syntax-ns#"
   xmlns:svg="http://www.w3.org/2000/svg"
   xmlns="http://www.w3.org/2000/svg"
   xmlns:sodipodi="http://sodipodi.sourceforge.net/DTD/sodipodi-0.dtd"
   xmlns:inkscape="http://www.inkscape.org/namespaces/inkscape"
   overflow="visible"
   width="380"
   height="440"
   viewBox="0 0 600 450"
   style="fill-rule:evenodd;stroke-width:0.5;stroke-linejoin:bevel;overflow:visible"
   id="svg3033"
   version="1.1"
   inkscape:version="0.48.2 r9819"
   sodipodi:docname="lock_closed-hololight.svg">
  <metadata
     id="metadata3041">
    <rdf:RDF>
      <cc:Work
         rdf:about="">
        <dc:format>image/svg+xml</dc:format>
        <dc:type
           rdf:resource="http://purl.org/dc/dcmitype/StillImage" />
        <dc:title />
      </cc:Work>
    </rdf:RDF>
  </metadata>
  <sodipodi:namedview
     pagecolor="#ffffff"
     bordercolor="#666666"
     borderopacity="1"
     objecttolerance="10"
     gridtolerance="10"
     guidetolerance="10"
     inkscape:pageopacity="0"
     inkscape:pageshadow="2"
     inkscape:window-width="1920"
     inkscape:window-height="1144"
     id="namedview3039"
     showgrid="false"
     showguides="true"
     inkscape:guide-bbox="true"
     inkscape:zoom="2"
     inkscape:cx="-56.226357"
     inkscape:cy="233.74147"
     inkscape:window-x="0"
     inkscape:window-y="27"
     inkscape:window-maximized="1"
     inkscape:current-layer="svg3033">
    <sodipodi:guide
       orientation="1,0"
       position="200.42373,361.69492"
       id="guide3043" />
    <sodipodi:guide
       orientation="0,1"
       position="43.813559,261.01695"
       id="guide3045" />
    <sodipodi:guide
       orientation="1,0"
       position="162.48475,349.68827"
       id="guide3047" />
    <sodipodi:guide
       orientation="1,0"
       position="126.73784,224.01474"
       id="guide3049" />
    <sodipodi:guide
       orientation="1,0"
       position="237.94143,157.59642"
       id="guide3051" />
    <sodipodi:guide
       orientation="0,1"
       position="204.53064,378.4789"
       id="guide3053" />
    <sodipodi:guide
       orientation="1,0"
       position="272.5,348.25"
       id="guide3055" />
    <sodipodi:guide
       orientation="0,1"
       position="250.75,281"
       id="guide3057" />
    <sodipodi:guide
       orientation="0,1"
       position="204.00031,409.23805"
       id="guide3059" />
    <sodipodi:guide
       orientation="0,1"
       position="238.26563,245.73047"
       id="guide3061" />
    <sodipodi:guide
       orientation="0,1"
       position="359.5638,336.58283"
       id="guide3067" />
    <sodipodi:guide
       orientation="0,1"
       position="262.69017,367.69552"
       id="guide3069" />
    <sodipodi:guide
       orientation="0,1"
       position="132.93607,223.44574"
       id="guide3071" />
    <sodipodi:guide
       orientation="0,1"
       position="225,147"
       id="guide3073" />
    <sodipodi:guide
       orientation="0,1"
       position="222.25,185.25"
       id="guide3075" />
    <sodipodi:guide
       orientation="0,1"
       position="234,109.5"
       id="guide3077" />
    <sodipodi:guide
       orientation="0,1"
       position="272.69531,224.82813"
       id="guide3891" />
  </sodipodi:namedview>
  <defs
     id="defs3035" />
  <path
     style="fill:#333333;fill-opacity:1;stroke:none;stroke-width:0.52800000000000002;marker-start:none;marker-end:none;opacity:0.59999999999999998"
     d="M 200.4375,36 C 162.49895,35.494397 130.87997,69.37802 126.75,103.40625 l 0,113.15625 c -3.78614,3.98239 -9.84154,10.73921 -11.96875,13.6875 -34.042465,47.18229 -23.428941,113.06754 23.6875,147.0625 47.11564,33.99436 112.98879,23.27604 147.03125,-23.90625 31.29226,-43.37056 24.85107,-102.54856 -12.99139,-138.22947 -0.008,-0.007 -8.3e-4,-56.16954 -0.009,-56.17678 -24.96509,0 -19.4323,0 -34.55818,0 -0.0203,0 0.0188,35.27632 -3.8e-4,35.26953 -0.0232,-0.008 0.0211,0.003 -0.002,-0.005 C 208.64084,184.2657 175.56698,187.01686 162.5,193.3125 l 0,-89.90625 c 3.8401,-17.050339 19.78406,-30.911085 37.9375,-30.96875 17.97525,0.05766 34.32846,13.781157 37.5,30.96875 l 0,55.59375 34.5625,0 0,-55.59375 C 269.69873,69.242089 236.18786,35.446213 200.4375,36 z m -0.0625,218.75 c 20.91778,0 37.875,16.95722 37.875,37.875 0,20.91778 -16.95722,37.875 -37.875,37.875 -20.91779,0 -37.875,-16.95722 -37.875,-37.875 0,-20.91778 16.95721,-37.875 37.875,-37.875 z"
     transform="matrix(1.5789474,0,0,1.5789474,0,-122.36842)"
     id="path3037"
     inkscape:connector-curvature="0"
     sodipodi:nodetypes="cccsssccsccccccccccsssss" />
</svg>
